{"title":"Terminator Salvation[2009]DVDRip[Eng]-Bunkboyz","uid":5423249,"size":840056312,"categoryP":"video","categoryS":"movies","magnet":"?xt=urn:btih:b7a9e6d87f98db67b739f8446e9dca684461c12c&amp;dn=Terminator+Salvation%5B2009%5DDVDRip%5BEng%5D-Bunkboyz&amp;tr=udp%3A%2F%2Ftracker.openbittorrent.com%3A80&amp;tr=udp%3A%2F%2Fopen.demonii.com%3A1337&amp;tr=udp%3A%2F%2Ftracker.coppersurfer.tk%3A6969&amp;tr=udp%3A%2F%2Fexodus.desync.com%3A6969","seeders":0,"leechers":1,"uploader":"Bunkboyz","files":-1,"time":1268155720,"description":"BUNKBOYZ RELEASED\n=================\n\nGeneral\nComplete name                    : Terminator.Salvation[2009]DVDRip[Eng]-Bunkboyz.avi\nFormat                           : AVI\nFormat/Info                      : Audio Video Interleave\nFile size                        : 801 MiB\nDuration                         : 1h 54mn\nOverall bit rate                 : 977 Kbps\nWriting application              : VirtualDubMod 1.5.4.1 (build 2178/release)\nWriting library                  : VirtualDubMod build 2178/release\n\nVideo\nID                               : 0\nFormat                           : MPEG-4 Visual\nFormat profile                   : Advanced Simple@L5\nFormat settings, BVOP            : Yes\nFormat settings, QPel            : No\nFormat settings, GMC             : No warppoints\nFormat settings, Matrix          : Custom\nCodec ID                         : XVID\nCodec ID/Hint                    : XviD\nDuration                         : 1h 54mn\nBit rate                         : 587 Kbps\nWidth                            : 608 pixels\nHeight                           : 256 pixels\nDisplay aspect ratio             : 2.35:1\nFrame rate                       : 23.976 fps\nResolution                       : 8 bits\nColorimetry                      : 4:2:0\nScan type                        : Progressive\nBits/(Pixel*Frame)               : 0.157\nStream size                      : 481 MiB (60%)\nWriting library                  : XviD 1.2.1 (UTC 2008-12-04)\n\nAudio\nID                               : 1\nFormat                           : AC-3\nFormat/Info                      : Audio Coding 3\nCodec ID                         : 2000\nDuration                         : 1h 54mn\nBit rate mode                    : Constant\nBit rate                         : 384 Kbps\nChannel(s)                       : 6 channels\nChannel positions                : Front: L C R, Surround: L R, LFE\nSampling rate                    : 48.0 KHz\nVideo delay                      : 7ms\nStream size                      : 315 MiB (39%)\nAlignment                        : Split accross interleaves\nInterleave, duration             : 96 ms (2.30 video frames)\nInterleave, preload duration     : 96 ms\nLanguage                         : English\n\n\nMovie screenshots : &lt;a href=&quot;\nhttp://www.postimg.com/image/12000/11940.jpg&quot; rel=&quot;nofollow&quot; target=&quot;_NEW&quot;&gt;\nhttp://www.postimg.com/image/12000/11940.jpg&lt;/a&gt; &lt;a href=&quot;\nhttp://www.postimg.com/image/12000/11942.jpg&quot; rel=&quot;nofollow&quot; target=&quot;_NEW&quot;&gt;\nhttp://www.postimg.com/image/12000/11942.jpg&lt;/a&gt; &lt;a href=&quot;\nhttp://www.postimg.com/image/12000/11941.jpg&quot; rel=&quot;nofollow&quot; target=&quot;_NEW&quot;&gt;\nhttp://www.postimg.com/image/12000/11941.jpg&lt;/a&gt; &lt;a href=&quot;\nhttp://www.postimg.com/image/12000/11944.jpg&quot; rel=&quot;nofollow&quot; target=&quot;_NEW&quot;&gt;\nhttp://www.postimg.com/image/12000/11944.jpg&lt;/a&gt; &lt;a href=&quot;\nhttp://www.postimg.com/image/12000/11939.jpg&quot; rel=&quot;nofollow&quot; target=&quot;_NEW&quot;&gt;\nhttp://www.postimg.com/image/12000/11939.jpg&lt;/a&gt;\n\n\nMovie Thumbnail/ScreenCaps : &lt;a href=&quot;\nhttp://www.postimg.com/image/12000/11945.jpg&quot; rel=&quot;nofollow&quot; target=&quot;_NEW&quot;&gt;\nhttp://www.postimg.com/image/12000/11945.jpg&lt;/a&gt;\n","torrent":{"xt":"urn:btih:b7a9e6d87f98db67b739f8446e9dca684461c12c","amp;dn":"Terminator+Salvation%5B2009%5DDVDRip%5BEng%5D-Bunkboyz","amp;tr":["udp%3A%2F%2Ftracker.openbittorrent.com%3A80","udp%3A%2F%2Fopen.demonii.com%3A1337","udp%3A%2F%2Ftracker.coppersurfer.tk%3A6969","udp%3A%2F%2Fexodus.desync.com%3A6969"],"infoHash":"b7a9e6d87f98db67b739f8446e9dca684461c12c","infoHashBuffer":{"type":"Buffer","data":[183,169,230,216,127,152,219,103,183,57,248,68,110,157,202,104,68,97,193,44]},"announce":[],"urlList":[]}}